<svg id="svg" version="1.1" width="1761" height="2481" xmlns="http://www.w3.org/2000/svg"><path d="M1344.964598951102 101.48750978247507 C 1350.8499787432243 103.56399271471099,1356.6631729636638 108.68307219333816,1359.4214070969058 114.21812690953153 L 1362.0 119.39268864720344 1361.990231084296 175.94634432360172 L 1361.980462168592 232.5 1359.628719630679 237.5 C 1358.335261234827 240.25,1355.8375775270656 243.7650995487505,1354.0783113912098 245.31133233055664 C 1352.3190452553538 246.85756511236278,1348.8444179938747 248.9950651123628,1346.3569174768118 250.06133233055664 C 1341.9306103171418 251.95866911084602,1337.4374065740055 251.99999999999997,1135.5985958594129 251.99999999999994 C 905.1152304013867 251.99999999999994,922.7344447285695 251.46555527143133,915.524478039771 258.6755219602291 C 913.5170911960879 260.68290880391197,910.8903799283601 264.1646200716398,909.6873418892645 266.4126581107353 L 907.5 270.5 907.2430288168079 692.7315322636339 L 906.9860576336157 1114.9630645272678 1008.7430288168079 1115.2315322636339 L 1110.5 1115.5 1116.4126959754194 1118.399588690134 C 1119.6646787619002 1119.9943624697073,1124.0726990001315 1122.8777643272717,1126.208296504822 1124.8071483736103 C 1128.343894009513 1126.736532419949,1131.5331808205742 1131.2817175093887,1133.2956005294027 1134.9075596834766 L 1136.5 1141.5 1136.5 1306.5 L 1136.5 1471.5 1134.0312292256876 1476.4811300569704 C 1132.6734052998158 1479.2207515883042,1129.2984052998158 1483.6416426910816,1126.5312292256876 1486.305332507587 C 1114.8985311023262 1497.502993480224,1120.797917091777 1496.9767998912619,1006.75 1496.9891757091084 L 907.0 1497.0 906.9780379995219 1672.25 C 906.9563033055482 1845.6861641002738,906.9352525805076 1847.5459011298628,904.9441497277455 1851.9348956869103 C 903.8375902785315 1854.3740883147111,901.1014208898666 1858.0599789594557,898.8637733084904 1860.1257637863428 C 891.4230951077154 1866.9949599264503,891.3736020254296 1867.0,831.3593737752618 1867.0 C 771.6837974104654 1867.0000000000002,770.0257491479322 1866.8234197304064,763.3063175604132 1859.7524262805582 C 761.6064219485212 1857.9635918262513,759.1545886561997 1854.475,757.8577991330321 1852.0 L 755.5 1847.5 755.5 1043.5 C 755.5 274.44523716160825,755.5779813738131 239.08708985940885,757.2941507810009 230.0 C 765.5800816120662 186.12612734186828,790.1685815761563 148.87403030561896,826.4906679979664 125.1658141935667 C 832.3527213315364 121.33952443480433,855.0804170984128 110.32588073391607,861.7345970930962 108.0869126782251 C 869.1100707255067 105.60524703771758,885.2541791173854 101.92804235618932,892.5 101.07936039647257 C 896.35 100.62842107602246,998.7809230645458 100.20108981026834,1120.1242734767684 100.12973536146345 C 1313.0820193440697 100.01626895764136,1341.2772445313485 100.18653536991944,1344.964598951102 101.48750978247507 M1283.5684987725722 152.47127641570705 C 1293.5262293577146 155.4420906745379,1301.017049229601 165.44394656244367,1300.978037999509 175.71675626981153 C 1300.9642246671326 179.35421488350494,1300.20028205442 183.1696569390329,1298.9190870396806 186.0 C 1297.7987431120448 188.475,1295.6711260122656 191.77871226719213,1294.1910490401715 193.3415828159825 C 1288.1666789436333 199.70294832359542,1277.437849454667 202.35467237997003,1268.95294540373 199.57940089472572 C 1266.117347994175 198.65192397959183,1262.0522467918936 196.27848275013616,1259.9193871764378 194.30508705149094 C 1257.7865275609822 192.33169135284572,1255.0871319672337 188.74571497382004,1253.920730301441 186.3362506536561 C 1251.3369871138063 180.99894944289153,1251.3001921371017 171.40964975382255,1253.8423708424298 165.91464957572495 C 1254.965674805766 163.48659230907623,1257.0500757057232 160.26660907101444,1258.4743728423346 158.75913126892095 C 1259.898669978946 157.25165346682746,1262.5091897101033 155.270927962447,1264.2755278004624 154.35751903696433 C 1266.0418658908213 153.44411011148168,1268.614964990864 152.35367977512638,1269.9935258005576 151.93434051173034 C 1271.3720866102508 151.5150012483343,1273.8808244476575 151.1332267527148,1275.5684987725722 151.08595274368696 C 1277.256173097487 151.03867873465913,1280.8561730974868 151.66207438706817,1283.5684987725722 152.47127641570705 M691.955302374206 317.55888211599995 C 694.9557186800192 318.9555214725256,698.8963397141903 321.7636254604588,700.7122380056971 323.799113200296 C 702.528136297204 325.8346009401332,704.695543311386 329.3,705.5286980372127 331.5 C 706.8781452484659 335.06330435719667,707.0109593413406 423.60334593556763,706.745234955439 1142.5 L 706.4469450994349 1949.5 703.7781793025601 1959.6065282414706 C 698.1449390225528 1980.9394237872523,691.0211631061587 1997.815057223096,682.1448257228576 2010.8541459772978 C 680.140171575286 2013.7989262648118,678.05 2016.9654370304038,677.5 2017.8908365675027 C 676.95 2018.8162361046016,675.940687882521 2020.2318704148174,675.2570841833801 2021.0366905902047 C 674.5734804842393 2021.8415107655921,672.5484804842392 2024.274755627282,670.7570841833801 2026.4439013939605 C 659.0480171607666 2040.62204452827,635.913829619941 2059.2057260651413,622.0 2065.610443271922 C 620.075 2066.496545873422,616.925 2067.896582662072,615.0 2068.7216361355886 C 613.075 2069.5466896091057,610.6931824515091 2070.637720610473,609.7070721144646 2071.1461494719606 C 608.7209617774203 2071.6545783334486,603.7709617774202 2073.3996702940813,598.7070721144646 2075.0241316067004 C 577.284081370597 2081.8964811206706,595.5309227821946 2081.4074578347586,347.5 2081.7565903966206 C 171.95115759025276 2082.0036959445692,121.51787567789378 2081.8034502845626,118.03138928910627 2080.84548384832 C 115.00155403197827 2080.0129894226975,111.89002921516123 2077.9888523159734,108.36748163259978 2074.5588317291513 C 99.92985276557566 2066.3428346305927,99.89338898552003 2066.0266350224033,100.21690880782563 2003.8802589157383 L 100.5 1949.5 102.84260362542344 1945.0 C 104.13103561940633 1942.525,106.15603561940632 1939.4446771491414,107.34260362542344 1938.1548381092034 C 108.52917163144055 1936.8649990692652,111.525 1934.6149990692652,114.0 1933.1548381092034 L 118.5 1930.5 328.5 1930.0 L 538.5 1929.5 542.359513369279 1927.1007575352496 C 544.4822457223823 1925.781174179637,547.2857493595702 1923.7129099104677,548.5895214519187 1922.5046147148737 C 549.8932935442672 1921.2963195192795,551.859129627869 1918.325978628417,552.9580460821451 1915.9038571796239 C 554.9451991152637 1911.5239737364177,554.9561955558423 1909.201429939918,554.9780379995054 1489.2640128523617 L 555.0 1067.0280257047234 453.75 1066.7640128523617 L 352.5 1066.5 346.5 1063.6125113206476 C 343.2 1062.0243925470038,338.9945389988935 1059.3243925470038,337.15453110865224 1057.6125113206476 C 335.3145232184109 1055.9006300942915,332.5882589149062 1052.7,331.0961659897529 1050.5 C 325.2094502068842 1041.820396669678,325.5 1050.9322580378357,325.5 875.0 L 325.5 712.5 328.1702311820696 706.9018580753982 C 329.63885833220786 703.8228800168673,332.71448319465867 699.2445349549637,335.00495309862697 696.7277579378347 C 338.6520371696566 692.7203281289547,347.24552982915685 687.7777869587659,353.5 686.0903449118804 C 356.2345683243424 685.3525645013049,388.7403444927972 685.0093895614453,456.25 685.0055769344036 L 555.0 685.0 555.0 512.1815012274278 C 555.0 326.35780436504933,554.7824035168943 334.07035754772306,560.2541807246571 325.95078788164494 C 562.8071325275522 322.16246294978555,569.5178545939118 317.38307822170884,574.0 316.1609980393851 C 576.0007503392345 315.6154830866496,600.845459003349 315.16661772890126,632.0 315.11312136265 L 686.5 315.01953783140794 691.955302374206 317.55888211599995 M1347.242947982756 317.3605950415796 C 1349.301569373272 318.3839223144484,1352.7615654517529 320.99685956939976,1354.9318281571577 323.1671222748049 C 1357.1020908625628 325.33738498021,1359.5900565420175 329.0001172114992,1360.4606407781682 331.30652723322527 C 1361.9005347136726 335.12119061118153,1362.0189722301238 408.4439771004395,1361.7717606037666 1143.0 L 1361.5 1950.5 1358.2769840132992 1962.0 C 1356.5043252206137 1968.325,1353.9391149881094 1976.542107214138,1352.5765168299563 1980.2602382536402 C 1351.2139186718032 1983.9783692931424,1349.4017758658185 1988.0159971026746,1348.5495328166571 1989.2327444970454 C 1347.6972897674957 1990.449491891416,1347.0 1992.0735198476336,1347.0 1992.8416955108619 C 1347.0 1993.7194514735447,1341.1668680078358 2004.2306428581046,1337.2006140812668 2010.5 C 1335.8088033356098 2012.7,1333.7317880441014 2015.9078501397516,1332.5850245445815 2017.6285558661145 C 1330.5759656807797 2020.64312608307,1321.8308680959117 2030.9624747795121,1317.9608686180045 2034.8852831848144 C 1295.519412058477 2057.632969566039,1270.4400300130994 2071.499347486644,1237.6852534958061 2079.2696310558836 L 1228.5 2081.448611708677 1002.0406586185377 2081.739235093712 L 775.5813172370754 2082.029858478747 770.3164118026982 2079.453980264789 C 767.4207138137907 2078.037247247112,763.4482958402806 2075.005111119879,761.4888163060091 2072.715899982049 C 755.0120517250004 2065.1492572299153,754.8886040306704 2063.7955250887203,755.209247081259 2003.8539035022127 L 755.5 1949.5 758.0667731870285 1944.5 C 760.6942537252193 1939.3817438341084,768.8868586092323 1932.439118505642,774.0 1930.997771392369 C 776.2497705198913 1930.3635819584083,850.9307992420261 1930.0091617408843,983.0684987725156 1930.0055769344158 C 1213.9986864777418 1929.999311954523,1195.7700879694682 1930.6364712664224,1203.534297421158 1922.299453147633 C 1205.854162314562 1919.8084389922585,1208.2579810330121 1916.0823019869224,1208.8761167954917 1914.0191486913309 C 1209.7002524295758 1911.2684291040114,1210.0 1797.821318283165,1210.0 1488.6568938075766 L 1210.0 1067.0458267339886 1108.25 1066.7729133669943 L 1006.5 1066.5 1000.5 1063.3258627366145 C 992.3884683659542 1059.0346769328219,987.3868272462963 1053.82546527047,983.3844412867312 1045.5 L 980.5 1039.5 980.2350710241665 878.5572652548509 C 979.9972671760662 734.0928799389214,980.13255563123 717.0455420500158,981.5564226587483 712.0572652548509 C 982.4288769944767 709.0007693646829,984.2235751610614 704.8403113704647,985.5446408067141 702.8118030454772 C 986.8657064523669 700.7832947204896,989.400161029131 697.6332947204896,991.176762088412 695.8118030454772 C 992.953363147693 693.9903113704647,995.3278830202335 691.9703478592658,996.4534729162797 691.3229952428128 C 1008.0594061320508 684.6481563339004,1001.4526711550113 685.0117778563841,1111.2363059500778 685.0055769344036 L 1209.9726119001557 685.0 1210.2363059500778 509.75 L 1210.5 334.5 1213.2015792543816 329.5 C 1216.5989437485232 323.2122620248297,1218.2512088594826 321.51347720467373,1224.0 318.39754850923316 C 1230.1175298046808 315.0817580764811,1227.636924918298 315.1996420060162,1288.0 315.3561244067245 C 1339.9394948850688 315.4907699137699,1343.7401222601356 315.61936321013263,1347.242947982756 317.3605950415796 M640.7898380672964 405.91237102577315 C 648.6163858876869 409.94649771755235,654.7497464225803 420.37355600752153,653.7370949157554 427.9234367516572 C 653.4464634630987 430.0902560308121,652.1967541046292 433.88928163876074,650.9599630080455 436.36571588043205 C 649.6901793532273 438.9082113196314,646.9239570155862 442.13542025415796,644.6056259616739 443.77899319006826 C 642.3475316827532 445.37986146869696,638.475 447.1785100309362,636.0 447.77598999504437 C 633.419204179199 448.3990097099464,629.7940407296009 448.5398595651911,627.5 448.1062437301448 C 625.3 447.69040332034194,622.375 446.7622927431275,621.0 446.04377578077936 C 619.625 445.3252588184312,616.805394159262 442.89412983889696,614.7342092428045 440.6412669373698 C 610.908636727458 436.48012694043194,609.0091092962509 431.4509367122675,609.0153458501068 425.5 C 609.0176514398224 423.3,610.0763612254528 419.25,611.3680342626187 416.5 C 612.6597072997846 413.75,614.5678112877179 410.76604840926285,615.6082653469148 409.86899646502854 C 616.6487194061116 408.9719445207942,619.3 407.3043327227166,621.5 406.16319246930044 C 624.1502512074823 404.7885068626992,627.4537067350517 404.0734786326938,631.2898380672964 404.04419600427195 C 635.1044259562383 404.01507782502824,638.3454279456308 404.6524208735776,640.7898380672964 405.91237102577315 M1295.584278831598 405.8988744219631 C 1297.8306321889772 406.91909715350283,1301.1036903526463 409.2717142532819,1302.8577414175293 411.1269124214722 C 1304.6536138789418 413.0263436110301,1306.7276856802466 416.8097542762922,1307.6051342849032 419.78685215707486 C 1309.0914625483367 424.8298195738912,1308.554210803175 431.954926038822,1306.365083703478 436.23257335597646 C 1305.5959523403524 437.73548870176353,1303.6597813255057 440.3020677644494,1302.062481448263 441.9360823841673 C 1300.4651815710206 443.5700970038853,1297.4351823862894 445.6344995505712,1295.3291499266384 446.5236435990249 C 1293.2231174669873 447.4127876474786,1289.176128717867 448.16755126705294,1286.3358415952603 448.2008960869679 C 1282.9416524853873 448.24074368678447,1279.599511935725 447.50044798535464,1276.584631074596 446.04096920031577 C 1274.0617524108375 444.81966459274224,1270.711767403818 442.26050301968405,1269.140219947886 440.3539434824087 C 1267.568672491954 438.44738394513337,1265.7692172262527 435.17308168552637,1265.1414304685502 433.0777162388375 C 1264.5136437108476 430.98235079214874,1264.0098829002209 427.5201696829467,1264.021962000491 425.3839804406108 C 1264.044525856831 421.3935617751811,1267.0256929687814 414.296132025,1270.1217163077083 410.86195733251554 C 1271.4297723384686 409.4110338653991,1274.3 407.29342206732144,1276.5 406.1561533367875 C 1279.094292616836 404.8150588499772,1282.4328476518508 404.0805783827258,1286.0 404.0661580047628 C 1289.266281485153 404.05295391114635,1293.1587507719887 404.7972762008852,1295.584278831598 405.8988744219631 M840.2687967493387 835.4678437809342 C 842.2009713116146 836.2751578604481,845.194065441415 838.3479115952612,846.9201170377839 840.0739631916301 C 848.6461686341529 841.800014787999,850.8100260912864 844.6269850865785,851.7286891647475 846.3561194106958 C 852.7311156249093 848.2429156145955,853.4191810134361 851.9075137073914,853.4494928309748 855.5210242852681 C 853.4875424127679 860.0569636467865,852.8833752973794 862.7351893236585,851.0 866.3794348609797 C 849.5502244376605 869.1846846327719,846.6903403797664 872.5242103545457,844.1922074098165 874.3289873614262 C 840.6028743114331 876.9221022692074,838.7682793897067 877.5007413032707,833.1922074098165 877.798434103766 C 828.7652504740114 878.0347784717449,825.3086464964744 877.6496669449352,822.9803959493777 876.6607028714416 C 821.0446137215354 875.8384464008778,818.0236010188013 873.8909106077547,816.2670343877464 872.3328455533901 C 814.5104677566916 870.7747804990256,812.1666724796926 867.475,811.0586004388597 865.0 C 809.9505283980269 862.525,809.0365507212422 858.925,809.0275389348936 857.0 C 809.004540429957 852.0873089650738,811.2841743894746 845.4321097774799,814.2907721833342 841.6344341849733 C 815.9739625329591 839.5083729867085,819.18461666201 836.9526597071898,821.4255591367806 835.9550713415983 C 823.6854690780262 834.9490393304901,828.0063451531393 834.1098164251031,831.1278760453274 834.070637156625 C 834.2232078702576 834.0317867204813,838.3366221870626 834.6605297014204,840.2687967493387 835.4678437809342 M103.43673557081553 1851.4034022374929 C 104.50194013476407 1853.550273468114,106.7954091279146 1856.7287424612603,108.53333333337224 1858.466666666707 C 115.67463971146682 1865.6079730447564,114.46717500124785 1865.4750450597683,174.9173457213143 1865.774783357382 C 234.8748743244136 1866.072078920629,236.09740838644254 1865.970316023104,242.71766064688296 1860.1311316062954 C 244.48737400266862 1858.5702118342392,247.07487400266862 1855.0242970268143,248.46766064688302 1852.251320923129 L 251.00000000000006 1847.2095461891558 251.00000000000003 1671.6186563081012 L 251.0 1496.0277664270466 353.25 1495.7638832135233 L 455.5 1495.5 461.4080500162521 1492.602609200455 C 464.6574775251907 1491.009044260705,469.1873525214895 1487.7522711583779,471.4744388969161 1485.365335639728 C 473.7615252723427 1482.978400121078,476.7279027650292 1478.8822259808733,478.066388880664 1476.2627264392731 L 480.5 1471.5 481.026348906359 1382.5 L 481.5526978127179 1293.5 481.526348906359 1382.5 L 481.5 1471.5 479.0427439445233 1476.3100708369352 C 475.24788540379757 1483.7384942429355,469.0128343869867 1489.8654654906015,461.48903018808295 1493.5595045922466 L 455.5 1496.5 353.75 1496.7639477318535 L 252.00000000000003 1497.0278954637067 252.0 1672.2495949863496 L 251.99999999999997 1847.4712945089923 249.29808268547578 1852.811539410185 C 247.81202816248748 1855.7486741058412,244.91029328155474 1859.487019718742,242.8497829500697 1861.1189741055202 C 235.08632298607458 1867.2677481986295,237.126025119464 1867.0989109989055,174.4308512987524 1866.7823798739546 C 112.53714609634264 1866.4698951491953,115.64129455993925 1866.833643835815,107.74678692503994 1858.9682430442049 C 105.6825197338119 1856.9115867521514,103.20751973381189 1853.4898726750016,102.24678692503994 1851.364433983872 C 100.59315889406896 1847.706096342364,100.4996327122231 1824.620755266319,100.49311312684819 1418.5 L 100.48622625369636 989.5 100.99311312684819 1418.5 C 101.49147666217148 1840.2863353302143,101.53256634256856 1847.5656359785842,103.43673557081553 1851.4034022374929 M640.555807373671 1305.8861273698776 C 642.78650142919 1306.8993392227705,646.2207931034972 1309.6082937346803,648.1875666499091 1311.906026285233 C 650.1543401963208 1314.2037588357857,652.3134043508295 1318.04772109039,652.9854869932615 1320.4481646287986 C 653.7279748131002 1323.1000707738965,653.9241639296531 1326.517003483448,653.4854798988765 1329.1563037129522 C 653.0883933545327 1331.5453366708286,652.102486242736 1334.7910147898265,651.2945752059945 1336.36892175517 C 650.4866641692531 1337.9468287205136,648.4985678012329 1340.5351035810427,646.8765832770605 1342.120643667457 C 645.2545987528881 1343.706183753871,642.2563283920244 1345.7130319316607,640.213760252919 1346.580306284767 C 638.1711921138136 1347.4475806378732,633.8805323583723 1348.1668057773443,630.6789607963829 1348.1785843724801 C 625.9897365338373 1348.195836048109,623.9541802280172 1347.641259608179,620.2098879582655 1345.3263414120026 C 610.3145248691569 1339.208508074631,606.5052500400715 1327.6699656997191,610.9612689847061 1317.311670188753 C 612.1714708997049 1314.498479935469,614.1377679797364 1311.3044180425964,615.3308180514429 1310.2137548712576 C 616.5238681231493 1309.123091699919,619.3 1307.2987046675337,621.5 1306.1595614659568 C 624.098031099082 1304.8143208005,627.4277072387621 1304.080599163083,631.0 1304.0661580047629 C 634.2529208736528 1304.0530079220348,638.1570400163384 1304.7965743167515,640.555807373671 1305.8861273698776 M1295.5 1305.9016657554807 C 1297.7 1306.923423720455,1300.4515219113116 1308.6742609052296,1301.614493136248 1309.7924150549802 C 1302.7774643611845 1310.9105692047306,1304.6423839405375 1313.3272025149852,1305.7587588681438 1315.1627112999904 C 1306.8751337957501 1316.9982200849956,1308.097864148976 1320.3959165293163,1308.4759374308683 1322.713147842925 C 1308.9321461733869 1325.5092755629682,1308.6261824823353 1328.7044378666087,1307.5662324491593 1332.213147842925 C 1306.6878214273272 1335.1209165293162,1304.7385691627896 1338.9152565917414,1303.234560750187 1340.645014648314 C 1296.6272495573921 1348.2440743824554,1283.857786763418 1350.4508572371865,1275.348661610661 1345.464177764471 C 1272.7289407746505 1343.9289191000776,1269.627354551986 1340.9050195570087,1267.934594205335 1338.2358134922092 C 1266.3339769901515 1335.71190206751,1264.723600423805 1332.0435848553877,1264.3559796134539 1330.0839974652708 C 1263.9883588031028 1328.1244100751537,1264.1832121782604 1324.158161156611,1264.788987113804 1321.2701109796199 C 1265.4564137582586 1318.0881344309946,1267.1486041347734 1314.453438996016,1269.083617425367 1312.0455737141926 C 1270.839889161183 1309.860128395199,1274.127050041491 1307.1561833533335,1276.388419381607 1306.0368069544916 C 1279.0456883306167 1304.7214604986386,1282.4454110046697 1304.009066415911,1286.0 1304.022750569699 C 1289.2157809079974 1304.0351304089854,1293.1612502487292 1304.8154674889158,1295.5 1305.9016657554807 M843.9410148249085 1737.7252340416035 C 846.3399349194713 1739.4894197617923,849.3631487567934 1742.7111625058403,850.6592677967354 1744.88466236171 C 851.9553868366775 1747.0581622175798,853.2836662527623 1750.7904284127133,853.6109998324795 1753.178587239784 C 854.8009753143265 1761.8604048932796,849.3704393006959 1772.1899857017904,841.6518104905917 1775.9265098023534 C 838.8432974500514 1777.2860876394154,835.3925387065555 1778.0,831.6294116302846 1778.0 C 828.1038957221925 1778.0,824.272180529178 1777.2617126893545,821.6951359779318 1776.0858834007395 C 819.3878111900693 1775.0331192711465,816.5154304870343 1773.1206192711463,815.3120677489651 1771.8358834007395 C 814.1087050108958 1770.5511475303329,812.2060879111168 1767.475,811.084029749456 1765.0 C 809.9619715877952 1762.525,809.034041100761 1758.4508549456207,809.0219620004909 1755.9463443236018 C 809.0079159248806 1753.0339961538434,809.9187121878458 1749.5490734997888,811.548881883642 1746.2777491570992 C 813.6813461196369 1741.998451006045,819.1331855898251 1736.7212517855617,823.2024784805923 1734.9974553748746 C 824.4661153162665 1734.462165165932,828.6678519332833 1734.135220667665,832.5396709628517 1734.2709120453922 C 838.683809747899 1734.4862389112202,840.1342000221834 1734.9256708841674,843.9410148249085 1737.7252340416035 M194.5 1982.745053915237 C 200.55406861619545 1984.8699667182127,208.2037434761242 1992.3159975445865,209.7776767493372 1997.6160195593893 C 210.44995453720173 1999.8798303170533,210.9956039879332 2003.9298303170533,210.990231084296 2006.6160195593893 C 210.98421304274652 2009.6247462296872,210.07917994305095 2013.4354913452473,208.63312932719288 2016.5408654139555 C 207.34209626442336 2019.313341391631,204.75899227649015 2022.870420961986,202.89289824289688 2024.4454866814108 C 198.3030004216156 2028.319563005444,191.67807136942554 2030.955641751157,186.5 2030.9682690838051 C 181.2716673534036 2030.981018984456,172.51440701433046 2027.312893428186,168.79495723129048 2023.552214594139 C 164.77459280107936 2019.4872855589922,161.8 2012.0649055517324,161.8 2006.097983317062 C 161.8 2002.4089024042862,162.5307467665619 1998.6227390858487,163.77399330853257 1995.8702800994738 C 164.85968962822548 1993.4666260447632,167.34936615405852 1989.9786156157172,169.30660781038378 1988.1191458127048 C 172.71022769836557 1984.8855500110924,181.92468208651636 1981.0850314497413,186.5 1981.0276997653675 C 188.15 1981.007024201176,191.75 1981.7798335686173,194.5 1982.745053915237 M852.3186912881478 1984.0274404306806 C 854.6184110796665 1985.2142121817599,857.5720552998926 1987.1560356193893,858.8823451108724 1988.3426036254123 C 860.1926349218523 1989.5291716314355,862.3257389097855 1992.75,863.6225761951684 1995.5 C 865.9312340791311 2000.395609690172,866.5344838566067 2008.5358384490644,864.9984029296625 2014.065351815375 C 864.4536591688199 2016.0262953138313,862.3828178936994 2019.5293163607462,860.3965334293948 2021.8498430307413 C 858.4102489650901 2024.1703697007367,855.0026815391457 2026.9783081153996,852.8241613717403 2028.0897061744367 C 850.6456412043349 2029.201104233474,846.6545299135759 2030.3720160670237,843.9550251700534 2030.6917324712135 C 841.1495841334566 2031.0239954622455,837.104622690105 2030.7292492708514,834.5133670060532 2030.0037425303308 C 829.0131470919343 2028.4637761554961,821.6908093056377 2022.0584702975314,818.9439379240189 2016.3841912046662 C 816.5684426770898 2011.4770728353644,816.0960330020149 2002.6380757350973,817.9600433532246 1997.9750820837733 C 818.7240748323344 1996.063786937698,820.2019998972038 1993.261469062578,821.2443212751566 1991.747709027951 C 822.2866426531094 1990.233948993324,824.6821607114601 1987.8187360356728,826.5676947381583 1986.3805691220593 C 828.4532287648565 1984.9424022084459,831.6843522778746 1983.1363259901043,833.747969211532 1982.3670664146337 C 836.0057687377763 1981.52542091506,839.6181475432702 1981.1478744301394,842.8186912881478 1981.4190431257937 C 845.743971496629 1981.6668898924024,850.018971496629 1982.8406686796015,852.3186912881478 1984.0274404306806 " stroke="black" fill="none" fill-rule="nonzero"/></svg>